<svg width="24" height="24" viewBox="0 0 24 24" fill="none" xmlns="http://www.w3.org/2000/svg">
<path d="M16.0001 2L13.7001 4.3C13.1504 4.86079 12.8425 5.61474 12.8425 6.4C12.8425 7.18526 13.1504 7.93921 13.7001 8.5L15.5001 10.3C16.0609 10.8497 16.8148 11.1576 17.6001 11.1576C18.3854 11.1576 19.1393 10.8497 19.7001 10.3L22.0001 8" stroke="#4D4D4D" stroke-width="2" stroke-linecap="round" stroke-linejoin="round"/>
<path d="M14.9999 15L3.29992 3.29999C2.9008 3.69104 2.58373 4.15781 2.36726 4.67294C2.1508 5.18807 2.03931 5.74122 2.03931 6.29999C2.03931 6.85875 2.1508 7.4119 2.36726 7.92704C2.58373 8.44217 2.9008 8.90893 3.29992 9.29999L10.5999 16.6C11.2999 17.3 12.5999 17.3 13.3999 16.6L14.9999 15ZM14.9999 15L21.9999 22" stroke="#4D4D4D" stroke-width="2" stroke-linecap="round" stroke-linejoin="round"/>
<path d="M2.1001 21.8L8.5001 15.5" stroke="#4D4D4D" stroke-width="2" stroke-linecap="round" stroke-linejoin="round"/>
<path d="M19 5L12 12" stroke="#4D4D4D" stroke-width="2" stroke-linecap="round" stroke-linejoin="round"/>
</svg>
