<svg width="20" height="20" viewBox="0 0 20 20" fill="none" xmlns="http://www.w3.org/2000/svg">
<path d="M3.3335 15.8333V14.1667H5.00016V8.33332C5.00016 7.18054 5.34738 6.15971 6.04183 5.27082C6.73627 4.36804 7.63905 3.77777 8.75016 3.49999V2.91666C8.75016 2.56943 8.86822 2.27777 9.10433 2.04166C9.35433 1.79166 9.65294 1.66666 10.0002 1.66666C10.3474 1.66666 10.6391 1.79166 10.8752 2.04166C11.1252 2.27777 11.2502 2.56943 11.2502 2.91666V3.49999C12.3613 3.77777 13.2641 4.36804 13.9585 5.27082C14.6529 6.15971 15.0002 7.18054 15.0002 8.33332V14.1667H16.6668V15.8333H3.3335ZM10.0002 18.3333C9.54183 18.3333 9.146 18.1736 8.81266 17.8542C8.49322 17.5208 8.3335 17.125 8.3335 16.6667H11.6668C11.6668 17.125 11.5002 17.5208 11.1668 17.8542C10.8474 18.1736 10.4585 18.3333 10.0002 18.3333ZM6.66683 14.1667H13.3335V8.33332C13.3335 7.41666 13.0071 6.63193 12.3543 5.97916C11.7016 5.32638 10.9168 4.99999 10.0002 4.99999C9.0835 4.99999 8.29877 5.32638 7.646 5.97916C6.99322 6.63193 6.66683 7.41666 6.66683 8.33332V14.1667Z" fill="#1D1B20"/>
</svg>
