<svg width="32" height="31" viewBox="0 0 32 31" fill="none" xmlns="http://www.w3.org/2000/svg">
<path d="M13 19.5C12.3 19.5 11.7083 19.2583 11.225 18.775C10.7417 18.2917 10.5 17.7 10.5 17C10.5 16.3 10.7417 15.7083 11.225 15.225C11.7083 14.7417 12.3 14.5 13 14.5C13.7 14.5 14.2917 14.7417 14.775 15.225C15.2583 15.7083 15.5 16.3 15.5 17C15.5 17.7 15.2583 18.2917 14.775 18.775C14.2917 19.2583 13.7 19.5 13 19.5ZM9 25C8.45 25 7.97933 24.8043 7.588 24.413C7.19667 24.0217 7.00067 23.5507 7 23V9C7 8.45 7.196 7.97933 7.588 7.588C7.98 7.19667 8.45067 7.00067 9 7H10V5H12V7H20V5H22V7H23C23.55 7 24.021 7.196 24.413 7.588C24.805 7.98 25.0007 8.45067 25 9V23C25 23.55 24.8043 24.021 24.413 24.413C24.0217 24.805 23.5507 25.0007 23 25H9ZM9 23H23V13H9V23Z" fill="#4D4D4D"/>
</svg>
