<svg width="16" height="16" viewBox="0 0 16 16" fill="none" xmlns="http://www.w3.org/2000/svg">
<path d="M8.05258 1.50001C4.85658 1.50001 2.22991 3.94201 1.97391 7.05534H1.33324C1.23412 7.05529 1.13722 7.08471 1.05485 7.13986C0.972475 7.195 0.908356 7.27339 0.870632 7.36506C0.832908 7.45672 0.823282 7.55753 0.842976 7.65468C0.862671 7.75183 0.910798 7.84094 0.981244 7.91067L2.10124 9.02134C2.19488 9.11416 2.32139 9.16624 2.45324 9.16624C2.58509 9.16624 2.7116 9.11416 2.80524 9.02134L3.92524 7.91067C3.99569 7.84094 4.04382 7.75183 4.06351 7.65468C4.08321 7.55753 4.07358 7.45672 4.03586 7.36506C3.99813 7.27339 3.93401 7.195 3.85164 7.13986C3.76927 7.08471 3.67237 7.05529 3.57324 7.05534H2.97791C3.23124 4.50134 5.40324 2.50001 8.05258 2.50001C8.92605 2.49832 9.78536 2.72071 10.5484 3.14592C11.3113 3.57113 11.9525 4.18494 12.4106 4.92867C12.4441 4.98639 12.4888 5.0368 12.5421 5.07696C12.5954 5.11711 12.6562 5.14618 12.721 5.16247C12.7857 5.17875 12.853 5.18191 12.919 5.17176C12.9849 5.16161 13.0482 5.13836 13.105 5.10338C13.1619 5.0684 13.2111 5.02239 13.2499 4.96807C13.2887 4.91376 13.3162 4.85222 13.3308 4.78711C13.3454 4.72199 13.3469 4.6546 13.335 4.58892C13.3232 4.52324 13.2983 4.46059 13.2619 4.40467C12.7144 3.51562 11.9482 2.78178 11.0363 2.27325C10.1244 1.76473 9.09667 1.4985 8.05258 1.50001ZM13.8939 6.97801C13.8003 6.88559 13.6741 6.83377 13.5426 6.83377C13.4111 6.83377 13.2848 6.88559 13.1912 6.97801L12.0666 8.08867C11.9959 8.15833 11.9476 8.24743 11.9278 8.34464C11.9079 8.44184 11.9174 8.54274 11.9551 8.63452C11.9928 8.7263 12.0569 8.8048 12.1393 8.86003C12.2217 8.91526 12.3187 8.94472 12.4179 8.94467H13.0172C12.7626 11.498 10.5832 13.5 7.92124 13.5C7.04504 13.5023 6.18284 13.2802 5.41673 12.855C4.65063 12.4297 4.00612 11.8155 3.54458 11.0707C3.51008 11.0148 3.46492 10.9662 3.41166 10.9278C3.3584 10.8893 3.29809 10.8618 3.23417 10.8466C3.17025 10.8315 3.10398 10.8291 3.03913 10.8396C2.97429 10.85 2.91214 10.8732 2.85624 10.9077C2.74335 10.9773 2.66275 11.089 2.63219 11.2181C2.60162 11.3472 2.62358 11.4831 2.69324 11.596C3.24441 12.486 4.0142 13.2201 4.92932 13.7284C5.84443 14.2367 6.87443 14.5023 7.92124 14.5C11.1266 14.5 13.7646 12.06 14.0212 8.94467H14.6666C14.7658 8.94472 14.8628 8.91526 14.9452 8.86003C15.0276 8.8048 15.0917 8.7263 15.1294 8.63452C15.167 8.54274 15.1766 8.44184 15.1567 8.34464C15.1369 8.24743 15.0885 8.15833 15.0179 8.08867L13.8939 6.97801Z" fill="#4D4D4D"/>
</svg>
