<svg width="20" height="20" viewBox="0 0 20 20" fill="none" xmlns="http://www.w3.org/2000/svg">
<path d="M10.0002 10C9.0835 10 8.29877 9.67362 7.646 9.02084C6.99322 8.36807 6.66683 7.58334 6.66683 6.66668C6.66683 5.75001 6.99322 4.96529 7.646 4.31251C8.29877 3.65973 9.0835 3.33334 10.0002 3.33334C10.9168 3.33334 11.7016 3.65973 12.3543 4.31251C13.0071 4.96529 13.3335 5.75001 13.3335 6.66668C13.3335 7.58334 13.0071 8.36807 12.3543 9.02084C11.7016 9.67362 10.9168 10 10.0002 10ZM3.3335 16.6667V14.3333C3.3335 13.8611 3.45502 13.4271 3.69808 13.0313C3.94113 12.6354 4.26405 12.3333 4.66683 12.125C5.52794 11.6945 6.40294 11.3715 7.29183 11.1563C8.18072 10.941 9.0835 10.8333 10.0002 10.8333C10.9168 10.8333 11.8196 10.941 12.7085 11.1563C13.5974 11.3715 14.4724 11.6945 15.3335 12.125C15.7363 12.3333 16.0592 12.6354 16.3022 13.0313C16.5453 13.4271 16.6668 13.8611 16.6668 14.3333V16.6667H3.3335ZM5.00016 15H15.0002V14.3333C15.0002 14.1806 14.962 14.0417 14.8856 13.9167C14.8092 13.7917 14.7085 13.6945 14.5835 13.625C13.8335 13.25 13.0766 12.9688 12.3127 12.7813C11.5488 12.5938 10.7779 12.5 10.0002 12.5C9.22238 12.5 8.45155 12.5938 7.68766 12.7813C6.92377 12.9688 6.16683 13.25 5.41683 13.625C5.29183 13.6945 5.19113 13.7917 5.11475 13.9167C5.03836 14.0417 5.00016 14.1806 5.00016 14.3333V15ZM10.0002 8.33334C10.4585 8.33334 10.8509 8.17015 11.1772 7.84376C11.5036 7.51737 11.6668 7.12501 11.6668 6.66668C11.6668 6.20834 11.5036 5.81598 11.1772 5.48959C10.8509 5.1632 10.4585 5.00001 10.0002 5.00001C9.54183 5.00001 9.14947 5.1632 8.82308 5.48959C8.49669 5.81598 8.3335 6.20834 8.3335 6.66668C8.3335 7.12501 8.49669 7.51737 8.82308 7.84376C9.14947 8.17015 9.54183 8.33334 10.0002 8.33334Z" fill="#1D1B20"/>
</svg>
