<svg width="36" height="36" viewBox="0 0 36 36" fill="none" xmlns="http://www.w3.org/2000/svg">
<path d="M11.334 23.8332V22.1665H13.0007V16.3332C13.0007 15.1804 13.3479 14.1596 14.0423 13.2707C14.7368 12.3679 15.6395 11.7776 16.7507 11.4998V10.9165C16.7507 10.5693 16.8687 10.2776 17.1048 10.0415C17.3548 9.7915 17.6534 9.6665 18.0007 9.6665C18.3479 9.6665 18.6395 9.7915 18.8757 10.0415C19.1257 10.2776 19.2507 10.5693 19.2507 10.9165V11.4998C20.3618 11.7776 21.2645 12.3679 21.959 13.2707C22.6534 14.1596 23.0007 15.1804 23.0007 16.3332V22.1665H24.6673V23.8332H11.334ZM18.0007 26.3332C17.5423 26.3332 17.1465 26.1734 16.8132 25.854C16.4937 25.5207 16.334 25.1248 16.334 24.6665H19.6673C19.6673 25.1248 19.5007 25.5207 19.1673 25.854C18.8479 26.1734 18.459 26.3332 18.0007 26.3332ZM14.6673 22.1665H21.334V16.3332C21.334 15.4165 21.0076 14.6318 20.3548 13.979C19.702 13.3262 18.9173 12.9998 18.0007 12.9998C17.084 12.9998 16.2993 13.3262 15.6465 13.979C14.9937 14.6318 14.6673 15.4165 14.6673 16.3332V22.1665Z" fill="#1D1B20"/>
</svg>
