<svg width="20" height="20" viewBox="0 0 20 20" fill="none" xmlns="http://www.w3.org/2000/svg">
<path d="M10 10H10.0083" stroke="black" stroke-width="1.25" stroke-linecap="round" stroke-linejoin="round"/>
<path d="M13.3337 4.99984V3.33317C13.3337 2.89114 13.1581 2.46722 12.8455 2.15466C12.5329 1.8421 12.109 1.6665 11.667 1.6665H8.33366C7.89163 1.6665 7.46771 1.8421 7.15515 2.15466C6.84259 2.46722 6.66699 2.89114 6.66699 3.33317V4.99984" stroke="black" stroke-width="1.25" stroke-linecap="round" stroke-linejoin="round"/>
<path d="M18.3337 10.8335C15.861 12.466 12.9633 13.3362 10.0003 13.3362C7.03737 13.3362 4.13967 12.466 1.66699 10.8335" stroke="black" stroke-width="1.25" stroke-linecap="round" stroke-linejoin="round"/>
<path d="M16.667 5H3.33366C2.41318 5 1.66699 5.74619 1.66699 6.66667V15C1.66699 15.9205 2.41318 16.6667 3.33366 16.6667H16.667C17.5875 16.6667 18.3337 15.9205 18.3337 15V6.66667C18.3337 5.74619 17.5875 5 16.667 5Z" stroke="black" stroke-width="1.25" stroke-linecap="round" stroke-linejoin="round"/>
</svg>
