<svg width="40" height="40" viewBox="0 0 40 40" fill="none" xmlns="http://www.w3.org/2000/svg">
<circle cx="20" cy="20" r="20" fill="#F3EFFF"/>
<path d="M26.6667 16.6665H13.3333C12.8731 16.6665 12.5 17.0396 12.5 17.4998V19.1665C12.5 19.6267 12.8731 19.9998 13.3333 19.9998H26.6667C27.1269 19.9998 27.5 19.6267 27.5 19.1665V17.4998C27.5 17.0396 27.1269 16.6665 26.6667 16.6665Z" stroke="#150053" stroke-linecap="round" stroke-linejoin="round"/>
<path d="M20 16.6665V27.4998" stroke="#150053" stroke-linecap="round" stroke-linejoin="round"/>
<path d="M25.8337 20V25.8333C25.8337 26.2754 25.6581 26.6993 25.3455 27.0118C25.0329 27.3244 24.609 27.5 24.167 27.5H15.8337C15.3916 27.5 14.9677 27.3244 14.6551 27.0118C14.3426 26.6993 14.167 26.2754 14.167 25.8333V20" stroke="#150053" stroke-linecap="round" stroke-linejoin="round"/>
<path d="M16.2503 16.6665C15.6978 16.6665 15.1679 16.447 14.7772 16.0563C14.3865 15.6656 14.167 15.1357 14.167 14.5832C14.167 14.0307 14.3865 13.5008 14.7772 13.1101C15.1679 12.7194 15.6978 12.4999 16.2503 12.4999C17.0542 12.4859 17.842 12.8759 18.5109 13.6192C19.1799 14.3624 19.6989 15.4244 20.0003 16.6665C20.3018 15.4244 20.8208 14.3624 21.4897 13.6192C22.1586 12.8759 22.9464 12.4859 23.7503 12.4999C24.3029 12.4999 24.8328 12.7194 25.2235 13.1101C25.6142 13.5008 25.8337 14.0307 25.8337 14.5832C25.8337 15.1357 25.6142 15.6656 25.2235 16.0563C24.8328 16.447 24.3029 16.6665 23.7503 16.6665" stroke="#150053" stroke-linecap="round" stroke-linejoin="round"/>
</svg>
