<svg width="40" height="40" viewBox="0 0 40 40" fill="none" xmlns="http://www.w3.org/2000/svg">
<circle cx="20" cy="20" r="20" fill="#FFECE9"/>
<path d="M14 27V14.4C14 14.2913 14.0253 14.1841 14.0739 14.087C14.1225 13.9898 14.1931 13.9052 14.28 13.84C15.007 13.2947 15.8912 13 16.8 13C18.9 13 20.3 14.4 21.9331 14.4C22.8664 14.4 23.5821 14.2133 24.08 13.84C24.184 13.762 24.3077 13.7145 24.4371 13.7028C24.5666 13.6912 24.6968 13.7158 24.813 13.7739C24.9293 13.832 25.0271 13.9214 25.0955 14.032C25.1638 14.1426 25.2 14.27 25.2 14.4V21.4C25.2 21.5087 25.1747 21.6159 25.1261 21.713C25.0775 21.8102 25.0069 21.8948 24.92 21.96C24.193 22.5053 23.3088 22.8 22.4 22.8C20.3 22.8 18.9 21.4 16.8 21.4C15.7669 21.4 14.77 21.7808 14 22.4696" stroke="black" stroke-linecap="round" stroke-linejoin="round"/>
</svg>
