<svg width="40" height="40" viewBox="0 0 40 40" fill="none" xmlns="http://www.w3.org/2000/svg">
<circle cx="20" cy="20" r="20" fill="#F5F9D9"/>
<path d="M20.4167 14.25L24.9583 18.65L20.4167 24.9L15.8917 18.65L20.4167 14.25ZM20.4167 12.5C20.0417 12.5 19.7167 12.625 19.4417 12.8833L14.6167 17.5667C14.3583 17.8167 14.2167 18.125 14.1667 18.5C14.1667 18.8667 14.2333 19.2 14.4417 19.5L19.5417 26.525C19.3333 26.9667 18.9583 27.1833 18.4083 27.1833C17.7417 27.1833 17.325 26.875 17.1667 26.25C17 25.7 16.6667 25.225 16.15 24.8333C15.6333 24.45 15.0833 24.25 14.5083 24.25C13.6333 24.25 12.9167 24.5833 12.375 25.25L13.5083 26.1833C13.75 25.8583 14.1 25.7 14.5083 25.7C15.175 25.7 15.5917 26.0083 15.75 26.625C15.9083 27.1833 16.25 27.6583 16.7667 28.0583C17.2833 28.4583 17.8333 28.6667 18.4083 28.6667C19.4417 28.6667 20.2333 28.1917 20.7833 27.25L26.4 19.5C26.6083 19.2 26.6917 18.8667 26.6667 18.5C26.625 18.1333 26.475 17.8167 26.225 17.5667L21.4 12.8833C21.125 12.625 20.8 12.5 20.4167 12.5Z" fill="#150053"/>
</svg>
