<svg width="40" height="40" viewBox="0 0 40 40" fill="none" xmlns="http://www.w3.org/2000/svg">
<circle cx="20" cy="20" r="20" fill="#E8F1FF"/>
<g clip-path="url(#clip0_124_500)">
<path d="M20.8026 15.0655C20.9962 15.2428 21.1796 15.4101 21.3172 15.6204L21.3937 15.7372L21.5201 15.677C21.8714 15.509 22.1111 15.2402 22.3428 14.9804C22.5175 14.7845 22.6826 14.5993 22.8897 14.4601L23.0183 14.3733L22.9354 14.2418C22.5782 13.6738 22.1011 13.1906 21.5377 12.8261L21.419 12.749L21.3281 12.8578C20.9713 13.2857 20.5791 13.6827 20.1556 14.0447L20.0631 14.1241L20.115 14.2345C20.2814 14.5887 20.5463 14.8309 20.8026 15.0655ZM22.8606 17.4869C24.0634 17.4869 25.0484 16.9954 25.634 16.1026L25.7038 15.9964L25.6164 15.9042C25.5146 15.7973 25.4174 15.6857 25.3201 15.574C25.0298 15.2409 24.7294 14.8965 24.3063 14.6681L24.1588 14.5884L24.0862 14.7401C23.5914 15.7705 22.6337 15.9868 21.9175 15.9868C20.6622 15.9868 19.1534 15.2863 18.4826 14.3916L17.9546 13.6873L18.2014 14.5324C18.6599 16.1065 20.8375 17.4869 22.8606 17.4869ZM18.7095 20.2495C19.2094 19.2985 19.2302 18.1849 18.7623 17.1753C18.3009 16.1788 17.4468 15.4764 16.4782 15.2953C16.28 15.2573 16.0787 15.2381 15.8769 15.238C14.7006 15.238 13.9306 15.9247 13.1863 16.5884C12.9153 16.83 12.6593 17.0597 12.386 17.2546L12.195 17.3941L12.3914 17.5289C12.4542 17.5695 12.6119 17.8092 12.739 17.9916C13.1422 18.5708 13.4782 19.0402 13.8353 19.0402C13.961 19.0402 14.0788 18.8911 14.4881 18.4309C14.6606 18.2373 14.8558 17.9913 14.9604 17.9084C15.4282 17.5369 16.0695 17.0281 16.77 17.0281C16.8644 17.0281 16.9594 17.0373 17.0519 17.0559C17.3761 17.1209 17.5719 17.2709 17.6503 17.5151C17.811 18.0153 17.442 18.782 17.1255 19.1205C16.9658 19.2917 16.7911 19.4149 16.6058 19.5455C16.3402 19.7327 16.0657 19.9266 15.8388 20.2674L15.7652 20.3781L15.8609 20.4709L16.2737 20.8735C16.6289 21.2213 16.9962 21.581 17.3732 21.9209L17.4996 22.0348L17.6058 21.9017C17.8449 21.6018 18.097 21.2828 18.3444 20.9567C18.4114 21.0555 18.4814 21.1567 18.5543 21.2604C19.0999 22.0405 19.7185 22.9247 19.315 24.0802C19.0145 24.9413 17.9998 25.502 16.8567 25.4197C15.505 25.325 14.3018 24.1711 13.1777 21.8921C13.1076 21.7497 13.05 21.59 12.9943 21.4354C12.8641 21.0738 12.729 20.7001 12.4148 20.4677L12.0996 20.2348L12.1617 20.6217C12.4916 22.6799 13.4586 24.6661 14.7489 25.9349C15.5294 26.7036 16.81 27.2002 18.0113 27.2002C19.3991 27.2002 20.8862 26.4789 20.8964 24.4546C20.9054 22.5586 19.7345 21.3273 18.7934 20.3378L18.7095 20.2495ZM27.4676 18.5109C27.0948 17.8175 25.6932 17.3119 24.9902 17.4658C23.9252 17.6981 23.1786 18.3007 22.5198 18.8325C21.8455 19.3772 21.2628 19.8473 20.4852 19.8473C20.2516 19.8473 20.0126 19.8057 19.7546 19.7205L19.345 19.5852L19.5671 19.9548C20.0772 20.8037 20.6727 21.2165 21.3876 21.2165C21.9684 21.2162 22.563 20.9378 23.1521 20.5772L23.2842 20.9689C23.5834 21.8549 24.8858 23.1692 26.0714 23.1692L26.1425 23.1673C26.6599 23.1442 27.0919 22.8527 27.3921 22.3234C28.0071 21.2396 27.9377 19.3839 27.4676 18.5109ZM23.9665 20.0425C24.8407 19.4482 25.7591 18.838 26.5114 18.9708C26.8388 19.5397 26.705 20.0297 26.531 20.3445C26.1988 20.9439 25.4711 21.3628 24.7607 21.3628C24.426 21.3628 23.9457 21.2674 23.5578 20.8137L23.2849 20.4946C23.513 20.3503 23.7406 20.1957 23.9665 20.0425Z" fill="black"/>
</g>
<defs>
<clipPath id="clip0_124_500">
<rect width="16" height="16" fill="white" transform="translate(12 12)"/>
</clipPath>
</defs>
</svg>
