<svg width="36" height="36" viewBox="0 0 36 36" fill="none" xmlns="http://www.w3.org/2000/svg">
<path d="M18.0007 18.0002C17.084 18.0002 16.2993 17.6738 15.6465 17.021C14.9937 16.3682 14.6673 15.5835 14.6673 14.6668C14.6673 13.7502 14.9937 12.9654 15.6465 12.3127C16.2993 11.6599 17.084 11.3335 18.0007 11.3335C18.9173 11.3335 19.702 11.6599 20.3548 12.3127C21.0076 12.9654 21.334 13.7502 21.334 14.6668C21.334 15.5835 21.0076 16.3682 20.3548 17.021C19.702 17.6738 18.9173 18.0002 18.0007 18.0002ZM11.334 24.6668V22.3335C11.334 21.8613 11.4555 21.4272 11.6986 21.0314C11.9416 20.6356 12.2645 20.3335 12.6673 20.1252C13.5284 19.6946 14.4034 19.3717 15.2923 19.1564C16.1812 18.9411 17.084 18.8335 18.0007 18.8335C18.9173 18.8335 19.8201 18.9411 20.709 19.1564C21.5979 19.3717 22.4729 19.6946 23.334 20.1252C23.7368 20.3335 24.0597 20.6356 24.3027 21.0314C24.5458 21.4272 24.6673 21.8613 24.6673 22.3335V24.6668H11.334ZM13.0007 23.0002H23.0007V22.3335C23.0007 22.1807 22.9625 22.0418 22.8861 21.9168C22.8097 21.7918 22.709 21.6946 22.584 21.6252C21.834 21.2502 21.077 20.9689 20.3132 20.7814C19.5493 20.5939 18.7784 20.5002 18.0007 20.5002C17.2229 20.5002 16.452 20.5939 15.6882 20.7814C14.9243 20.9689 14.1673 21.2502 13.4173 21.6252C13.2923 21.6946 13.1916 21.7918 13.1152 21.9168C13.0388 22.0418 13.0007 22.1807 13.0007 22.3335V23.0002ZM18.0007 16.3335C18.459 16.3335 18.8513 16.1703 19.1777 15.8439C19.5041 15.5175 19.6673 15.1252 19.6673 14.6668C19.6673 14.2085 19.5041 13.8161 19.1777 13.4897C18.8513 13.1634 18.459 13.0002 18.0007 13.0002C17.5423 13.0002 17.15 13.1634 16.8236 13.4897C16.4972 13.8161 16.334 14.2085 16.334 14.6668C16.334 15.1252 16.4972 15.5175 16.8236 15.8439C17.15 16.1703 17.5423 16.3335 18.0007 16.3335Z" fill="#1D1B20"/>
</svg>
